<svg width="59" height="36" viewBox="0 0 59 36" fill="none" xmlns="http://www.w3.org/2000/svg">
<g clip-path="url(#clip0_224_339)">
<path d="M8.46003 15.1345C8.14971 14.8094 8.54537 14.318 8.93327 14.5231C13.5377 16.9765 15.9233 22.4637 17.8706 27.0377C18.8907 29.437 19.7364 31.8555 20.3919 34.3128C22.0599 31.3215 23.6231 23.3808 19.7674 16.2606C15.1436 7.72396 0.224857 0 0.224857 0C0.224857 0 -1.21038 17.1777 3.14189 25.2112C6.97824 32.2967 15.3143 35.6092 18.464 35.6285C16.6215 28.1019 13.8596 20.7843 8.46003 15.1345Z" fill="#8BA889"/>
<path d="M31.4861 13.5752C24.9189 19.8828 23.6659 28.8103 24.2866 32.9664C25.4425 30.8458 26.6916 28.7871 28.0376 26.8522C32.033 21.1173 37.5451 17.503 43.7515 14.4846C44.1821 14.2756 44.5506 14.8832 44.1317 15.1308C37.8283 18.8845 32.6575 23.0908 28.9492 29.5146C27.8204 31.4688 26.7963 33.4733 25.8227 35.5049C29.1005 36.7006 39.8531 36.0776 46.7849 29.414C54.4809 22.0189 58.9961 2.40332 58.9961 2.40332C58.9961 2.40332 39.6592 5.71967 31.4861 13.5752Z" fill="#8BA889"/>
</g>
<defs>
<clipPath id="clip0_224_339">
<rect width="59" height="36" fill="white"/>
</clipPath>
</defs>
</svg>
