<?xml version="1.0" standalone="no"?>
<!DOCTYPE svg PUBLIC "-//W3C//DTD SVG 20010904//EN"
 "http://www.w3.org/TR/2001/REC-SVG-20010904/DTD/svg10.dtd">
<svg version="1.0" xmlns="http://www.w3.org/2000/svg"
 width="700.000000pt" height="700.000000pt" viewBox="0 0 700.000000 700.000000"
 preserveAspectRatio="xMidYMid meet">
<metadata>
Created by potrace 1.14, written by Peter Selinger 2001-2017
</metadata>
<g transform="translate(0.000000,700.000000) scale(0.100000,-0.100000)"
fill="#000000" stroke="none">
<path d="M29 5638 c-1 -1 -3 -21 -5 -43 -26 -332 -26 -1149 1 -1442 2 -26 7
-79 10 -118 9 -114 22 -230 41 -365 4 -28 32 -196 48 -285 15 -80 82 -331 116
-430 50 -145 149 -351 221 -460 234 -353 591 -661 1008 -869 238 -120 492
-202 674 -220 45 -4 49 1 37 45 -6 19 -37 133 -70 254 -83 310 -210 675 -315
910 -14 33 -34 76 -42 95 -34 75 -132 270 -183 360 -53 96 -225 363 -264 411
-12 14 -32 40 -46 59 -51 67 -143 180 -175 214 -84 88 -96 105 -89 130 10 43
44 43 116 0 378 -228 663 -633 983 -1399 20 -49 43 -103 50 -120 70 -159 212
-569 251 -722 10 -40 21 -73 25 -73 9 0 58 112 91 210 28 83 63 218 74 289 3
20 7 38 9 41 2 3 6 37 10 75 4 39 10 74 13 79 3 5 6 109 8 230 2 213 -9 362
-36 502 -6 33 -13 70 -16 84 -28 146 -104 367 -181 529 -208 436 -637 885
-1303 1367 -161 117 -487 334 -500 334 -5 0 -10 3 -10 8 0 4 -10 12 -23 18
-12 6 -85 49 -162 96 -77 47 -162 97 -190 113 -27 15 -78 43 -112 62 -35 19
-64 33 -64 31z"/>
<path d="M6795 5315 c-315 -66 -734 -173 -1015 -260 -63 -20 -122 -38 -130
-40 -8 -2 -87 -28 -175 -58 -649 -221 -1176 -480 -1533 -754 -113 -86 -140
-111 -262 -234 -450 -454 -734 -1083 -806 -1784 -10 -89 -7 -406 3 -433 8 -20
13 -15 52 55 104 184 285 482 328 538 5 6 21 30 37 55 73 114 231 313 341 429
236 251 452 433 745 628 130 87 316 203 326 203 2 0 21 11 42 23 111 70 443
237 471 237 13 0 26 -10 33 -26 11 -25 10 -29 -22 -55 -19 -16 -38 -29 -42
-29 -10 0 -315 -197 -432 -279 -550 -385 -964 -813 -1270 -1314 -36 -60 -66
-110 -66 -112 0 -2 -14 -27 -30 -55 -79 -134 -320 -605 -320 -626 0 -6 15 -15
33 -19 17 -4 37 -9 42 -10 6 -2 26 -6 45 -9 19 -4 46 -9 60 -11 69 -14 332
-20 435 -10 22 2 74 6 115 10 41 3 84 8 95 10 18 4 61 11 125 20 162 23 495
116 645 180 17 7 55 23 85 35 100 40 334 165 439 234 372 245 628 538 906
1035 53 95 265 524 265 536 0 2 26 67 59 142 164 386 350 929 491 1438 23 83
43 161 46 173 5 27 31 128 40 154 8 25 -11 23 -201 -17z"/>
</g>
</svg>
